<svg width="490" height="438" viewBox="0 0 490 438" fill="none" xmlns="http://www.w3.org/2000/svg">
<path d="M164.665 446.514C170.928 441.222 174.733 432.861 173.735 424.722C172.737 416.582 166.557 409.1 158.541 407.372C150.526 405.643 141.388 410.428 138.953 418.258C137.613 403.161 136.069 387.432 128.043 374.576C120.775 362.935 108.187 354.605 94.5452 353.115C80.9029 351.625 66.5393 357.253 58.0312 368.021C49.523 378.789 47.4398 394.442 53.3987 406.805C57.7884 415.911 65.8758 422.689 74.3494 428.203C101.731 445.869 134.571 453.054 166.828 448.434" fill="#F2F2F2"/>
<path d="M71.5215 357.565C82.7781 366.734 93.1048 376.988 102.352 388.18C116.825 405.635 128.536 425.206 137.078 446.21C137.703 447.742 135.215 448.409 134.596 446.894C129.164 433.614 122.444 420.898 114.531 408.93C102.193 390.233 87.0758 373.526 69.7021 359.385C68.4175 358.339 70.2476 356.528 71.5215 357.565Z" fill="white"/>
<path d="M168.99 446.514C162.727 441.222 158.922 432.861 159.92 424.722C160.918 416.582 167.097 409.1 175.113 407.372C183.129 405.643 192.267 410.428 194.702 418.258C196.042 403.161 197.586 387.432 205.612 374.576C212.88 362.935 225.467 354.605 239.11 353.115C252.752 351.625 267.115 357.253 275.624 368.021C284.132 378.789 286.215 394.442 280.256 406.805C275.866 415.911 267.779 422.689 259.305 428.203C231.924 445.869 199.084 453.054 166.827 448.434" fill="#F2F2F2"/>
<path d="M262.133 357.565C250.876 366.734 240.549 376.988 231.302 388.18C216.83 405.635 205.119 425.206 196.577 446.21C195.951 447.742 198.439 448.409 199.058 446.894C213.034 412.758 235.346 382.671 263.952 359.385C265.237 358.339 263.407 356.528 262.133 357.565Z" fill="white"/>
<path d="M187.576 194.249C199.164 194.249 208.557 184.855 208.557 173.268C208.557 161.681 199.164 152.287 187.576 152.287C175.989 152.287 166.596 161.681 166.596 173.268C166.596 184.855 175.989 194.249 187.576 194.249Z" fill="#F2F2F2"/>
<path d="M122.887 100.944H267.439V108.853H141.341C133.926 108.853 126.585 110.313 119.735 113.15C112.885 115.988 106.662 120.146 101.419 125.389C96.1764 130.631 92.0178 136.855 89.1805 143.705C86.3433 150.555 84.883 157.896 84.883 165.31V255.161H69.0659C68.3667 255.161 67.6962 254.883 67.2018 254.389C66.7074 253.895 66.4297 253.224 66.4297 252.525V157.402C66.4297 149.988 67.89 142.646 70.7273 135.796C73.5645 128.947 77.7232 122.723 82.9657 117.48C88.2083 112.238 94.4321 108.079 101.282 105.242C108.132 102.405 115.473 100.944 122.887 100.944Z" fill="#F2F2F2"/>
<path d="M151 459.808V255H186V459.808C185.999 461.184 185.68 462.504 185.112 463.477C184.544 464.451 183.774 464.998 182.971 465H154.029C153.226 464.998 152.456 464.451 151.888 463.477C151.32 462.504 151.001 461.184 151 459.808Z" fill="#111111"/>
<path d="M58.9854 252.454V154.768C59.0029 139.217 65.1882 124.309 76.1844 113.312C87.1805 102.316 102.089 96.1309 117.64 96.1133H266.762V255.838H62.3693C61.4722 255.837 60.612 255.48 59.9776 254.845C59.3432 254.211 58.9864 253.351 58.9854 252.454ZM265.409 97.4669H117.64C102.448 97.4841 87.8834 103.527 77.1411 114.269C66.3987 125.012 60.3561 139.576 60.3389 154.768V252.454C60.3395 252.992 60.5536 253.508 60.9343 253.889C61.3149 254.269 61.831 254.484 62.3693 254.484H265.409V97.4669Z" fill="#3F3D56"/>
<path d="M187.577 184.097C184.347 184.094 181.251 182.809 178.967 180.525C176.683 178.241 175.398 175.145 175.395 171.915V84.6079C175.394 84.0696 175.18 83.5535 174.799 83.1728C174.419 82.7922 173.903 82.5781 173.364 82.5775H125.988C125.091 82.5765 124.231 82.2196 123.597 81.5852C122.962 80.9508 122.606 80.0907 122.604 79.1935V47.384C122.606 46.4868 122.962 45.6267 123.597 44.9923C124.231 44.3579 125.091 44.001 125.988 44H196.376C197.273 44.001 198.133 44.3579 198.767 44.9923C199.402 45.6267 199.759 46.4868 199.76 47.384V171.915C199.756 175.145 198.471 178.241 196.187 180.525C193.904 182.809 190.807 184.094 187.577 184.097Z" fill="#E0154E"/>
<path d="M272.176 94.7599C282.386 94.7385 292.186 98.7738 299.421 105.978C306.656 113.183 310.732 122.966 310.754 133.176V244.38H386.555C389.6 244.374 392.523 245.578 394.681 247.726C396.838 249.875 398.054 252.793 398.061 255.838H233.599V133.176C233.62 122.966 237.696 113.183 244.931 105.978C252.166 98.7738 261.966 94.7385 272.176 94.7599Z" fill="#111111"/>
<path d="M262.92 158.086L270.908 191.084L427.168 153.257L419.18 120.259C419.084 119.856 418.887 119.483 418.608 119.176C418.329 118.869 417.977 118.637 417.585 118.503C417.295 118.401 416.989 118.355 416.682 118.367L326.357 71.5988C325.827 71.3285 325.219 71.2563 324.641 71.3952C324.063 71.5341 323.554 71.875 323.205 72.3563L279.674 133.061L263.263 155.952C263.233 155.992 263.212 156.038 263.202 156.087C263.191 156.136 263.192 156.186 263.203 156.235C262.869 156.791 262.767 157.456 262.92 158.086Z" fill="white"/>
<path d="M263.202 156.235C263.209 156.278 263.226 156.319 263.249 156.356C263.273 156.392 263.303 156.424 263.339 156.449C263.382 156.478 263.429 156.498 263.48 156.508C263.53 156.518 263.582 156.518 263.632 156.507C263.714 156.485 263.786 156.435 263.835 156.367L263.891 156.288L264.746 155.093L280.264 133.46L323.783 72.7695C324.031 72.4255 324.394 72.1821 324.807 72.0832C325.219 71.9843 325.654 72.0366 326.031 72.2306L415.656 118.636L416.46 119.054C416.493 119.067 416.526 119.079 416.56 119.089C416.621 119.078 416.682 119.072 416.744 119.071C416.828 119.043 416.898 118.984 416.94 118.906C416.962 118.864 416.975 118.819 416.98 118.773C416.984 118.726 416.979 118.68 416.965 118.635C416.952 118.59 416.929 118.549 416.899 118.513C416.87 118.477 416.833 118.448 416.792 118.426L416.681 118.367L326.356 71.5988C325.827 71.3285 325.218 71.2563 324.64 71.3952C324.062 71.5341 323.553 71.875 323.204 72.3563L279.673 133.061L263.262 155.952C263.232 155.992 263.211 156.038 263.201 156.087C263.191 156.136 263.191 156.186 263.202 156.235Z" fill="#3F3D56"/>
<path d="M310.132 159.6L313.61 159.986L339.425 162.846L356.538 164.74L357.549 164.853L378.903 148.173L379.722 147.534L384.765 143.595L402.71 129.581L402.817 128.597L409.2 70.9916C409.287 70.1983 409.056 69.403 408.557 68.7799C408.059 68.1568 407.334 67.7567 406.541 67.6675L321.362 58.2317C320.568 58.1451 319.773 58.3763 319.15 58.8747C318.527 59.3731 318.127 60.0982 318.037 60.891L313.536 101.524L311.04 124.052L308.806 144.206L307.771 153.566L307.469 156.277C307.383 157.07 307.615 157.866 308.114 158.489C308.613 159.111 309.338 159.511 310.132 159.6Z" fill="#E6E6E6"/>
<path d="M333.539 109.107L370.436 113.193L383.521 114.642C384.098 114.706 384.683 114.656 385.241 114.494C385.8 114.332 386.32 114.061 386.774 113.698C387.228 113.335 387.606 112.886 387.886 112.377C388.166 111.867 388.343 111.308 388.407 110.73C388.471 110.152 388.421 109.568 388.259 109.01C388.097 108.451 387.826 107.931 387.463 107.477C387.1 107.023 386.651 106.645 386.142 106.365C385.632 106.085 385.073 105.908 384.495 105.844L368.22 104.041L334.516 100.304C333.349 100.175 332.179 100.515 331.262 101.249C330.346 101.983 329.758 103.05 329.629 104.217C329.499 105.384 329.838 106.555 330.572 107.472C331.305 108.388 332.372 108.977 333.539 109.107Z" fill="white"/>
<path d="M331.438 125.429C331.533 125.446 331.629 125.463 331.725 125.472L374.557 130.217L381.708 131.011C382.875 131.14 384.046 130.8 384.963 130.066C385.879 129.332 386.467 128.264 386.596 127.097C386.725 125.93 386.385 124.759 385.651 123.842C384.917 122.926 383.849 122.338 382.682 122.209L372.341 121.065L338.413 117.306L332.703 116.673C331.562 116.545 330.415 116.867 329.506 117.57C328.597 118.272 327.997 119.301 327.833 120.438C327.668 121.575 327.953 122.732 328.625 123.663C329.298 124.594 330.307 125.227 331.438 125.429Z" fill="white"/>
<path d="M326.59 139.901C326.941 140.484 327.421 140.978 327.994 141.344C328.567 141.711 329.217 141.941 329.893 142.016L347.448 143.96L378.714 147.424L378.721 147.423L379.721 147.534L384.765 143.595C384.796 143.296 384.796 142.994 384.765 142.695C384.659 141.69 384.213 140.752 383.501 140.035C382.788 139.318 381.853 138.866 380.849 138.753L376.506 138.271L359.276 136.364L346.88 134.989L330.866 133.214C330.046 133.124 329.216 133.264 328.471 133.62C327.726 133.976 327.095 134.533 326.651 135.229C326.206 135.924 325.964 136.731 325.953 137.556C325.943 138.382 326.163 139.194 326.59 139.901Z" fill="white"/>
<path d="M351.248 89.1554L360.429 90.1721L364.483 90.6225L370.609 91.3003C371.776 91.4294 372.946 91.0896 373.863 90.3556C374.78 89.6215 375.367 88.5534 375.496 87.3863C375.625 86.2191 375.286 85.0484 374.551 84.1318C373.817 83.2152 372.749 82.6277 371.582 82.4986L352.226 80.3562C351.059 80.2265 349.889 80.5657 348.972 81.299C348.055 82.0324 347.467 83.0999 347.338 84.2668C347.208 85.4336 347.547 86.6042 348.28 87.521C349.014 88.4378 350.081 89.0257 351.248 89.1554Z" fill="white"/>
<path d="M276.182 113.664L287.374 159.899L306.055 163.451L323.335 166.741L341.875 170.269L347.799 171.396C348.145 171.462 348.502 171.453 348.845 171.369C349.188 171.286 349.51 171.131 349.788 170.914L354.541 167.203L357.55 164.853L378.904 148.173L365.326 92.0844C365.192 91.5264 364.9 91.019 364.484 90.6231C364.12 90.2729 363.673 90.02 363.185 89.8879C362.697 89.7558 362.184 89.7486 361.692 89.867L278.399 110.031C277.623 110.219 276.954 110.707 276.539 111.389C276.123 112.07 275.994 112.889 276.182 113.664Z" fill="#E0154E"/>
<path d="M301.846 150.446C302.123 151.586 302.842 152.57 303.844 153.181C304.845 153.793 306.049 153.982 307.19 153.706L356.065 141.875C357.205 141.597 358.188 140.879 358.8 139.877C359.411 138.875 359.6 137.672 359.325 136.531C359.313 136.474 359.297 136.419 359.278 136.364C358.966 135.264 358.24 134.327 357.253 133.751C356.265 133.174 355.093 133.002 353.982 133.27L305.107 145.102C303.966 145.379 302.983 146.097 302.371 147.099C301.76 148.101 301.571 149.305 301.846 150.446Z" fill="white"/>
<path d="M306.054 163.451L323.334 166.74L359.938 157.879C361.079 157.603 362.064 156.885 362.675 155.883C363.287 154.881 363.475 153.677 363.199 152.536C362.923 151.394 362.204 150.41 361.202 149.798C360.2 149.187 358.996 148.998 357.855 149.275L308.981 161.106C307.959 161.352 307.059 161.955 306.444 162.806C306.296 163.009 306.165 163.225 306.054 163.451Z" fill="white"/>
<path d="M341.874 170.268L347.798 171.396C348.145 171.461 348.502 171.452 348.845 171.369C349.188 171.286 349.509 171.131 349.788 170.914L354.54 167.202L341.874 170.268Z" fill="white"/>
<path d="M311.693 125.653C311.971 126.794 312.689 127.778 313.691 128.389C314.693 129.001 315.896 129.189 317.037 128.914L335.968 124.332C337.108 124.054 338.091 123.335 338.703 122.334C339.314 121.332 339.503 120.129 339.228 118.988C339.081 118.375 338.803 117.801 338.413 117.305C337.889 116.635 337.184 116.13 336.381 115.85C335.578 115.57 334.711 115.528 333.885 115.727L314.954 120.31C313.813 120.586 312.829 121.304 312.217 122.306C311.606 123.308 311.417 124.512 311.693 125.653Z" fill="white"/>
<path d="M323.333 166.741L341.876 170.269L347.799 171.397C348.145 171.462 348.502 171.453 348.844 171.37C349.187 171.287 349.508 171.132 349.787 170.916L354.543 167.203L352.874 167.607L349.351 170.355C349.152 170.51 348.922 170.62 348.677 170.68C348.433 170.739 348.178 170.746 347.93 170.699L343.545 169.865L325.002 166.337L323.333 166.741ZM378.721 147.426L378.902 148.171L379.724 147.532L378.721 147.426ZM323.333 166.741L341.876 170.269L347.799 171.397C348.145 171.462 348.502 171.453 348.844 171.37C349.187 171.287 349.508 171.132 349.787 170.916L354.543 167.203L352.874 167.607L349.351 170.355C349.152 170.51 348.922 170.62 348.677 170.68C348.433 170.739 348.178 170.746 347.93 170.699L343.545 169.865L325.002 166.337L323.333 166.741ZM323.333 166.741L341.876 170.269L347.799 171.397C348.145 171.462 348.502 171.453 348.844 171.37C349.187 171.287 349.508 171.132 349.787 170.916L354.543 167.203L352.874 167.607L349.351 170.355C349.152 170.51 348.922 170.62 348.677 170.68C348.433 170.739 348.178 170.746 347.93 170.699L343.545 169.865L325.002 166.337L323.333 166.741ZM262.92 158.087L283.844 244.521C283.999 245.159 284.402 245.71 284.963 246.053C285.524 246.395 286.198 246.501 286.837 246.347L438.278 209.686C438.917 209.531 439.468 209.129 439.81 208.568C440.153 208.006 440.258 207.332 440.104 206.693L419.18 120.259C419.084 119.856 418.887 119.483 418.608 119.176C418.329 118.869 417.977 118.638 417.585 118.503C417.295 118.401 416.989 118.355 416.682 118.367C416.324 118.377 415.973 118.47 415.657 118.637C415.511 118.706 415.373 118.792 415.246 118.892L402.817 128.597L384.767 142.697L378.72 147.421L378.721 147.426L378.716 147.427L356.54 164.738L352.874 167.607L349.351 170.355C349.152 170.51 348.922 170.62 348.677 170.68C348.433 170.739 348.178 170.746 347.93 170.699L343.545 169.865L325.002 166.337L306.443 162.807L265.794 155.071C265.447 155.003 265.09 155.01 264.746 155.094C264.284 155.207 263.864 155.45 263.536 155.795C263.411 155.93 263.299 156.078 263.203 156.235C262.869 156.791 262.767 157.457 262.92 158.087ZM323.333 166.741L341.876 170.269L347.799 171.397C348.145 171.462 348.502 171.453 348.844 171.37C349.187 171.287 349.508 171.132 349.787 170.916L354.543 167.203L352.874 167.607L349.351 170.355C349.152 170.51 348.922 170.62 348.677 170.68C348.433 170.739 348.178 170.746 347.93 170.699L343.545 169.865L325.002 166.337L323.333 166.741ZM323.333 166.741L341.876 170.269L347.799 171.397C348.145 171.462 348.502 171.453 348.844 171.37C349.187 171.287 349.508 171.132 349.787 170.916L354.543 167.203L352.874 167.607L349.351 170.355C349.152 170.51 348.922 170.62 348.677 170.68C348.433 170.739 348.178 170.746 347.93 170.699L343.545 169.865L325.002 166.337L323.333 166.741ZM323.333 166.741L341.876 170.269L347.799 171.397C348.145 171.462 348.502 171.453 348.844 171.37C349.187 171.287 349.508 171.132 349.787 170.916L354.543 167.203L352.874 167.607L349.351 170.355C349.152 170.51 348.922 170.62 348.677 170.68C348.433 170.739 348.178 170.746 347.93 170.699L343.545 169.865L325.002 166.337L323.333 166.741Z" fill="white"/>
<path d="M323.333 166.741L341.876 170.269L347.799 171.397C348.145 171.462 348.502 171.452 348.844 171.37C349.187 171.287 349.508 171.132 349.787 170.916L354.543 167.203L352.874 167.607L349.351 170.355C349.152 170.51 348.922 170.62 348.677 170.68C348.433 170.739 348.178 170.746 347.93 170.699L343.545 169.865L325.002 166.337L323.333 166.741ZM378.721 147.426L378.902 148.171L379.724 147.532L378.721 147.426ZM323.333 166.741L341.876 170.269L347.799 171.397C348.145 171.462 348.502 171.452 348.844 171.37C349.187 171.287 349.508 171.132 349.787 170.916L354.543 167.203L352.874 167.607L349.351 170.355C349.152 170.51 348.922 170.62 348.677 170.68C348.433 170.739 348.178 170.746 347.93 170.699L343.545 169.865L325.002 166.337L323.333 166.741ZM323.333 166.741L341.876 170.269L347.799 171.397C348.145 171.462 348.502 171.452 348.844 171.37C349.187 171.287 349.508 171.132 349.787 170.916L354.543 167.203L352.874 167.607L349.351 170.355C349.152 170.51 348.922 170.62 348.677 170.68C348.433 170.739 348.178 170.746 347.93 170.699L343.545 169.865L325.002 166.337L323.333 166.741ZM263.892 156.289L263.984 156.358C263.999 156.333 264.026 156.31 264.047 156.284C264.252 156.07 264.506 155.911 264.788 155.82C265.07 155.73 265.37 155.71 265.661 155.764L306.056 163.448L323.333 166.741L341.876 170.269L347.799 171.397C348.145 171.462 348.502 171.452 348.844 171.37C349.187 171.287 349.508 171.132 349.787 170.916L354.543 167.203L352.874 167.607L349.351 170.355C349.152 170.51 348.922 170.62 348.677 170.68C348.433 170.739 348.178 170.746 347.93 170.699L343.545 169.865L325.002 166.337L306.443 162.807L265.794 155.071C265.447 155.002 265.09 155.01 264.746 155.094L263.892 156.289ZM262.92 158.087L283.844 244.521C283.999 245.159 284.402 245.71 284.963 246.053C285.524 246.395 286.198 246.501 286.837 246.347L438.278 209.686C438.917 209.531 439.468 209.129 439.81 208.568C440.153 208.006 440.258 207.332 440.104 206.693L419.18 120.259C419.084 119.856 418.887 119.483 418.608 119.176C418.329 118.869 417.977 118.638 417.585 118.503C417.295 118.401 416.989 118.355 416.682 118.367C416.324 118.377 415.973 118.47 415.657 118.637C415.511 118.706 415.373 118.792 415.246 118.892L402.817 128.597L384.767 142.697L378.72 147.421L378.721 147.426L378.716 147.427L356.54 164.738L352.874 167.607L349.351 170.355C349.152 170.51 348.922 170.62 348.677 170.68C348.433 170.739 348.178 170.746 347.93 170.699L343.545 169.865L325.002 166.337L306.443 162.807L265.794 155.071C265.447 155.002 265.09 155.01 264.746 155.094C264.284 155.207 263.864 155.45 263.536 155.795C263.411 155.93 263.299 156.078 263.203 156.235C262.869 156.791 262.767 157.456 262.92 158.087ZM263.61 157.92C263.549 157.665 263.545 157.399 263.599 157.143C263.653 156.886 263.763 156.645 263.923 156.437C263.937 156.406 263.958 156.379 263.984 156.358C263.999 156.333 264.026 156.31 264.047 156.284C264.252 156.07 264.506 155.911 264.788 155.82C265.07 155.73 265.37 155.71 265.661 155.764L306.056 163.448L323.333 166.741L341.876 170.269L347.799 171.397C348.145 171.462 348.502 171.452 348.844 171.37C349.187 171.287 349.508 171.132 349.787 170.916L354.543 167.203L357.551 164.853L378.902 148.171L379.724 147.532L384.764 143.595L402.711 129.579L415.686 119.446C415.884 119.292 416.111 119.182 416.354 119.123C416.422 119.106 416.491 119.095 416.561 119.089C416.622 119.078 416.683 119.072 416.745 119.071C416.952 119.07 417.158 119.103 417.354 119.171C417.634 119.268 417.885 119.434 418.084 119.653C418.283 119.872 418.425 120.138 418.495 120.425L439.419 206.859C439.474 207.086 439.484 207.321 439.448 207.551C439.412 207.781 439.331 208.002 439.21 208.201C439.089 208.4 438.929 208.573 438.741 208.711C438.552 208.848 438.339 208.947 438.112 209.001L286.671 245.662C286.214 245.772 285.733 245.696 285.332 245.45C284.931 245.205 284.644 244.811 284.534 244.354L263.61 157.92ZM323.333 166.741L341.876 170.269L347.799 171.397C348.145 171.462 348.502 171.452 348.844 171.37C349.187 171.287 349.508 171.132 349.787 170.916L354.543 167.203L352.874 167.607L349.351 170.355C349.152 170.51 348.922 170.62 348.677 170.68C348.433 170.739 348.178 170.746 347.93 170.699L343.545 169.865L325.002 166.337L323.333 166.741ZM323.333 166.741L341.876 170.269L347.799 171.397C348.145 171.462 348.502 171.452 348.844 171.37C349.187 171.287 349.508 171.132 349.787 170.916L354.543 167.203L352.874 167.607L349.351 170.355C349.152 170.51 348.922 170.62 348.677 170.68C348.433 170.739 348.178 170.746 347.93 170.699L343.545 169.865L325.002 166.337L323.333 166.741ZM323.333 166.741L341.876 170.269L347.799 171.397C348.145 171.462 348.502 171.452 348.844 171.37C349.187 171.287 349.508 171.132 349.787 170.916L354.543 167.203L352.874 167.607L349.351 170.355C349.152 170.51 348.922 170.62 348.677 170.68C348.433 170.739 348.178 170.746 347.93 170.699L343.545 169.865L325.002 166.337L323.333 166.741Z" fill="#3F3D56"/>
<path d="M398.807 192.705C398.466 191.289 398.701 189.795 399.46 188.552C400.218 187.308 401.44 186.416 402.855 186.072L421.969 181.445C423.383 181.108 424.874 181.345 426.113 182.104C427.353 182.864 428.242 184.084 428.584 185.497C428.926 186.91 428.694 188.401 427.939 189.644C427.183 190.886 425.967 191.779 424.555 192.126L405.441 196.753C404.024 197.094 402.531 196.86 401.287 196.101C400.043 195.342 399.152 194.121 398.807 192.705Z" fill="#E0154E"/>
<path d="M187.576 176.653C190.193 176.653 192.314 174.532 192.314 171.915C192.314 169.299 190.193 167.178 187.576 167.178C184.96 167.178 182.839 169.299 182.839 171.915C182.839 174.532 184.96 176.653 187.576 176.653Z" fill="white"/>
</svg>